# MagicaVoxel @ Ephtracy

# group
o 

# material
mtllib Target.mtl
usemtl palette

# normals
vn -1 0 0
vn 1 0 0
vn 0 0 1
vn 0 0 -1
vn 0 -1 0
vn 0 1 0

# texcoords
vt 0.0214844 0.5
vt 0.841797 0.5
vt 0.880859 0.5
vt 0.923828 0.5
vt 0.994141 0.5

# verts
v -0.5 0 -0.4
v -0.5 0 -0.5
v -0.5 1 -0.4
v -0.5 1 -0.5
v 0.5 0 -0.4
v 0.5 0 -0.5
v 0.5 1 -0.4
v 0.5 1 -0.5
v -0.5 0 -0.4
v -0.5 1 -0.4
v -0.4 0.1 -0.4
v -0.4 0.9 -0.4
v -0.3 0.2 -0.4
v -0.3 0.8 -0.4
v -0.2 0.3 -0.4
v -0.2 0.7 -0.4
v -0.1 0.4 -0.4
v -0.1 0.6 -0.4
v 0.1 0.4 -0.4
v 0.1 0.6 -0.4
v 0.2 0.3 -0.4
v 0.2 0.7 -0.4
v 0.3 0.2 -0.4
v 0.3 0.8 -0.4
v 0.4 0.1 -0.4
v 0.4 0.9 -0.4
v 0.5 0 -0.4
v 0.5 1 -0.4
v -0.5 0 -0.5
v -0.5 1 -0.5
v -0.4 0.1 -0.5
v -0.4 0.9 -0.5
v -0.3 0.2 -0.5
v -0.3 0.8 -0.5
v -0.2 0.3 -0.5
v -0.2 0.7 -0.5
v -0.1 0.4 -0.5
v -0.1 0.6 -0.5
v 0.1 0.4 -0.5
v 0.1 0.6 -0.5
v 0.2 0.3 -0.5
v 0.2 0.7 -0.5
v 0.3 0.2 -0.5
v 0.3 0.8 -0.5
v 0.4 0.1 -0.5
v 0.4 0.9 -0.5
v 0.5 0 -0.5
v 0.5 1 -0.5
v -0.5 0 -0.4
v 0.5 0 -0.4
v -0.5 0 -0.5
v 0.5 0 -0.5
v -0.5 1 -0.4
v 0.5 1 -0.4
v -0.5 1 -0.5
v 0.5 1 -0.5

# faces
f 3/5/1 2/5/1 1/5/1
f 4/5/1 2/5/1 3/5/1
f 5/5/2 6/5/2 7/5/2
f 7/5/2 6/5/2 8/5/2
f 11/5/3 10/5/3 9/5/3
f 12/5/3 10/5/3 11/5/3
f 13/3/3 12/3/3 11/3/3
f 14/3/3 12/3/3 13/3/3
f 15/4/3 14/4/3 13/4/3
f 16/4/3 14/4/3 15/4/3
f 17/1/3 16/1/3 15/1/3
f 18/1/3 16/1/3 17/1/3
f 19/1/3 17/1/3 15/1/3
f 19/2/3 18/2/3 17/2/3
f 20/1/3 16/1/3 18/1/3
f 20/2/3 18/2/3 19/2/3
f 21/4/3 15/4/3 13/4/3
f 21/1/3 19/1/3 15/1/3
f 21/1/3 20/1/3 19/1/3
f 22/1/3 16/1/3 20/1/3
f 22/1/3 20/1/3 21/1/3
f 22/4/3 14/4/3 16/4/3
f 23/3/3 13/3/3 11/3/3
f 23/4/3 21/4/3 13/4/3
f 23/4/3 22/4/3 21/4/3
f 24/4/3 14/4/3 22/4/3
f 24/4/3 22/4/3 23/4/3
f 24/3/3 12/3/3 14/3/3
f 25/5/3 11/5/3 9/5/3
f 25/3/3 23/3/3 11/3/3
f 25/3/3 24/3/3 23/3/3
f 26/3/3 12/3/3 24/3/3
f 26/3/3 24/3/3 25/3/3
f 26/5/3 10/5/3 12/5/3
f 27/5/3 25/5/3 9/5/3
f 27/5/3 26/5/3 25/5/3
f 28/5/3 10/5/3 26/5/3
f 28/5/3 26/5/3 27/5/3
f 29/5/4 30/5/4 31/5/4
f 31/5/4 30/5/4 32/5/4
f 31/3/4 32/3/4 33/3/4
f 33/3/4 32/3/4 34/3/4
f 33/4/4 34/4/4 35/4/4
f 35/4/4 34/4/4 36/4/4
f 35/1/4 36/1/4 37/1/4
f 37/1/4 36/1/4 38/1/4
f 35/1/4 37/1/4 39/1/4
f 37/2/4 38/2/4 39/2/4
f 38/1/4 36/1/4 40/1/4
f 39/2/4 38/2/4 40/2/4
f 33/4/4 35/4/4 41/4/4
f 35/1/4 39/1/4 41/1/4
f 39/1/4 40/1/4 41/1/4
f 40/1/4 36/1/4 42/1/4
f 41/1/4 40/1/4 42/1/4
f 36/4/4 34/4/4 42/4/4
f 31/3/4 33/3/4 43/3/4
f 33/4/4 41/4/4 43/4/4
f 41/4/4 42/4/4 43/4/4
f 42/4/4 34/4/4 44/4/4
f 43/4/4 42/4/4 44/4/4
f 34/3/4 32/3/4 44/3/4
f 29/5/4 31/5/4 45/5/4
f 31/3/4 43/3/4 45/3/4
f 43/3/4 44/3/4 45/3/4
f 44/3/4 32/3/4 46/3/4
f 45/3/4 44/3/4 46/3/4
f 32/5/4 30/5/4 46/5/4
f 29/5/4 45/5/4 47/5/4
f 45/5/4 46/5/4 47/5/4
f 46/5/4 30/5/4 48/5/4
f 47/5/4 46/5/4 48/5/4
f 51/5/5 50/5/5 49/5/5
f 52/5/5 50/5/5 51/5/5
f 53/5/6 54/5/6 55/5/6
f 55/5/6 54/5/6 56/5/6
